<svg xmlns="http://www.w3.org/2000/svg" viewBox="0 0 90.78 84.32"><defs><style>.cls-1{fill:#3f3f3f;}</style></defs><title>default-avatar</title><g id="圖層_2" data-name="圖層 2"><g id="圖層_1-2" data-name="圖層 1"><path class="cls-1" d="M27.11,27.82a5.22,5.22,0,0,0-3.66,1.64c-2,2-2.19,4.89-.33,6.74a4.86,4.86,0,0,0,3.46,1.43,5,5,0,0,0,3.61-8.5A4.35,4.35,0,0,0,27.11,27.82Zm0,5.28a.72.72,0,0,1-.51.22.57.57,0,0,1-.41-.17l0,0a1.56,1.56,0,0,1,1-1l0,0A.66.66,0,0,1,27.1,33.1Z"/><path class="cls-1" d="M69.08,32.58a5.35,5.35,0,0,0-1.6-3.12,5.22,5.22,0,0,0-3.66-1.64,4.35,4.35,0,0,0-3.09,1.31,4.86,4.86,0,0,0-1.43,3.53,5.06,5.06,0,0,0,5,5h0a4.86,4.86,0,0,0,3.46-1.43A4.3,4.3,0,0,0,69.08,32.58Zm-4.32.57a.57.57,0,0,1-.41.17.75.75,0,0,1-.73-.72.58.58,0,0,1,.17-.42l0,0a1.56,1.56,0,0,1,1,1Z"/><path class="cls-1" d="M65,77.47,62.49,74c-3,2.16-11,3.15-17.13,3.15-8.76,0-15-1.63-17.13-3.15l-2.52,3.5c3.4,2.44,10.92,4,19.65,4S61.61,79.92,65,77.47Z"/><path class="cls-1" d="M75.49,38.54a13.78,13.78,0,0,0-4.84,1.11l-2.36,1.09,1.51,2.12q.51.72.95,1.46a18.28,18.28,0,0,1,1.65,3.6,12,12,0,0,1,.09,8,8.4,8.4,0,0,1-5.16,5,11.2,11.2,0,0,1-2.43.58,14.06,14.06,0,0,1-3.47,0,18.83,18.83,0,0,1-6.88-2.34,22.33,22.33,0,0,1-7.42-6.72l-1.77-2.56-1.77,2.56a22.33,22.33,0,0,1-7.42,6.72,18.83,18.83,0,0,1-6.88,2.34,14.1,14.1,0,0,1-3.37,0,11.25,11.25,0,0,1-2.53-.59,8.4,8.4,0,0,1-5.16-5,12.12,12.12,0,0,1,.16-8.23A18.39,18.39,0,0,1,20,44.32q.44-.74.95-1.46l1.51-2.12-2.36-1.09a13.78,13.78,0,0,0-4.84-1.11,8.38,8.38,0,0,0-8.27,4.83l3.87,1.9a5.21,5.21,0,0,1,.6-1A4.09,4.09,0,0,1,15,42.84a7.88,7.88,0,0,1,.85.07q-.38.7-.7,1.41c-2,4.49-2.41,9.18-.91,13.13A12.76,12.76,0,0,0,21.91,65a15.28,15.28,0,0,0,2.27.63,36.12,36.12,0,0,0,21.21,6.5,36.11,36.11,0,0,0,21.25-6.53,15.27,15.27,0,0,0,2.15-.6,12.76,12.76,0,0,0,7.72-7.53,16.08,16.08,0,0,0,.2-10.11h0a21.31,21.31,0,0,0-1.11-3q-.32-.71-.7-1.41c.24,0,.49-.05.75-.06a4.12,4.12,0,0,1,3.65,1.47,5.2,5.2,0,0,1,.6,1l3.87-1.9A8.39,8.39,0,0,0,75.49,38.54ZM41.73,60.61a26.74,26.74,0,0,0,3.62-3.44A26.74,26.74,0,0,0,49,60.61l.82.62a16.79,16.79,0,0,1-4.26.51h-.07A16.58,16.58,0,0,1,41,61.17Zm3.66,7.19a33.85,33.85,0,0,1-13-2.51,23.58,23.58,0,0,0,4-1.4A17.92,17.92,0,0,0,45.47,66h.07a18,18,0,0,0,9-2.08,23.49,23.49,0,0,0,3.85,1.34A33.86,33.86,0,0,1,45.39,67.8Z"/><path class="cls-1" d="M37.33,44.32h0c.51,3,3.6,2,4.37,0a2.61,2.61,0,0,0,.16-.72,20.84,20.84,0,0,1,1.23-5.1S36.79,41,37.33,44.32Z"/><path class="cls-1" d="M48.85,43.52a2.54,2.54,0,0,0,.18.8c.76,1.9,3.66,2.75,4.3,0l0-.17c.63-3.34-5.65-5.7-5.65-5.7A20.21,20.21,0,0,1,48.85,43.52Z"/><path class="cls-1" d="M80.94,27.13A25.36,25.36,0,0,0,77.71,16a27.82,27.82,0,0,0-8.15-8.93A36.73,36.73,0,0,0,58.27,1.7,44.23,44.23,0,0,0,45.39,0,44.22,44.22,0,0,0,32.51,1.7,36.73,36.73,0,0,0,21.23,7.06,27.82,27.82,0,0,0,13.08,16,25.36,25.36,0,0,0,9.85,27.13,32,32,0,0,0,.1,41.94l-.1.32V84.32H4.31V42.94A27,27,0,0,1,13.17,30l.92-.63,0-1.12a21.82,21.82,0,0,1,9.62-17.7,32.44,32.44,0,0,1,10-4.72A39.93,39.93,0,0,1,45.36,4.32h.06A39.9,39.9,0,0,1,57.08,5.84a32.44,32.44,0,0,1,10,4.72,21.82,21.82,0,0,1,9.62,17.7l0,1.12.92.63a26.64,26.64,0,0,1,8.86,12.93V84.32h4.31V42.26l-.1-.32A32,32,0,0,0,80.94,27.13Z"/><path class="cls-1" d="M25.06,48.89,25,46.74a16.67,16.67,0,0,0-5,1.12l1.64,4a12.36,12.36,0,0,1,3.53-.8Z"/><path class="cls-1" d="M28.35,56.17,27,54.51l-1.37-1.67a16.67,16.67,0,0,0-3.32,3.85L26,58.92A12.36,12.36,0,0,1,28.35,56.17Z"/><path class="cls-1" d="M32,52.79a16.68,16.68,0,0,0-1.27,4.92l4.29.36a12.36,12.36,0,0,1,.9-3.51l-2-.89Z"/><path class="cls-1" d="M70.89,47.86a16.67,16.67,0,0,0-5-1.12L65.72,51a12.36,12.36,0,0,1,3.53.8Z"/><path class="cls-1" d="M62.54,56.17a12.33,12.33,0,0,1,2.36,2.74l3.69-2.23a16.68,16.68,0,0,0-3.32-3.85Z"/><path class="cls-1" d="M55,54.57a12.36,12.36,0,0,1,.9,3.51l4.29-.36a16.68,16.68,0,0,0-1.27-4.92Z"/><path class="cls-1" d="M45.44,29.45a23.69,23.69,0,0,0-10.17,2.22l1.86,3.89a20.13,20.13,0,0,1,16.61,0l1.86-3.89A23.69,23.69,0,0,0,45.44,29.45Z"/></g></g></svg>