<?xml version="1.0" encoding="utf-8"?>
<!-- Generator: Adobe Illustrator 21.1.0, SVG Export Plug-In . SVG Version: 6.00 Build 0)  -->
<svg version="1.1" id="圖層_1" xmlns="http://www.w3.org/2000/svg" xmlns:xlink="http://www.w3.org/1999/xlink" x="0px" y="0px"
	 viewBox="0 0 25 37.8" style="enable-background:new 0 0 25 37.8;" xml:space="preserve">
<style type="text/css">
	.st0{fill:#DB5245;}
	.st1{fill:#C14130;}
</style>
<title>google-map-marker</title>
<path class="st0" d="M12.5,0C5.6,0,0,5.6,0,12.5c0,3.9,2.2,7.1,4.1,10.4l4.5,8c1.3,2.3,2.6,4.7,3.9,6.9c1.4-2.3,2.6-4.6,3.9-6.9
	l4.5-8c1.8-3.3,4-6.5,4-10.4C25,5.6,19.4,0,12.5,0z M12.5,21c-4.4,0-8-3.6-8-8s3.6-8,8-8s8,3.6,8,8S16.9,21,12.5,21z"/>
<path class="st1" d="M12.5,4.9C8,4.9,4.4,8.6,4.4,13s3.6,8.1,8.1,8.1s8.1-3.6,8.1-8.1S17,4.9,12.5,4.9z M12.5,18.3
	c-2.9,0-5.2-2.3-5.2-5.2c0-2.9,2.3-5.2,5.2-5.2c2.9,0,5.2,2.3,5.2,5.2v0C17.7,15.9,15.4,18.3,12.5,18.3z"/>
</svg>
