<svg xmlns="http://www.w3.org/2000/svg" viewBox="0 0 288.09 254.9"><defs><style>.cls-1{fill:#eee;}</style></defs><title>triple-coupon</title><g id="圖層_2" data-name="圖層 2"><g id="圖層_1-2" data-name="圖層 1"><path class="cls-1" d="M158,65a2.09,2.09,0,0,1-.21.25A2.14,2.14,0,0,0,158,65Z"/><path class="cls-1" d="M181.34,69.4v0Z"/><path class="cls-1" d="M181.55,74.43h0Z"/><path class="cls-1" d="M158.66,63.79v0a2.44,2.44,0,0,0,.06-.55l.66.28.33.16.26.12.42.23.1.06.44.28h0a4.7,4.7,0,0,1,1.33,1.26l.13,0v0l-.14,0a7.47,7.47,0,0,0-3.55-2.38,2.35,2.35,0,0,1-.24,1l-.15-.05.15.1h0A2.34,2.34,0,0,0,158.66,63.79Z"/><path class="cls-1" d="M186,73.73l-.25,0Z"/><path class="cls-1" d="M162.35,65.72l.06.09-.06-.09Z"/><path class="cls-1" d="M174,64.22a6.87,6.87,0,0,0,2.19-.47l-.06,0a6.8,6.8,0,0,1-2.13.45l-2.76.16c-1.46.07-2.84.12-4.11.14,0,0,0,0,0,0Q170.23,64.47,174,64.22Z"/><path class="cls-1" d="M164.45,62.47q2.62.2,2.74,1.58v0q-.1-1.39-2.74-1.59a3.55,3.55,0,0,0-2.74,1.49h0A3.54,3.54,0,0,1,164.45,62.47Z"/><path class="cls-1" d="M174.3,71,174,71Z"/><path class="cls-1" d="M175.95,71.37l-.13-.08Z"/><path class="cls-1" d="M181.3,73.81v0h0Z"/><path class="cls-1" d="M174.64,70.93l-.19,0Z"/><path class="cls-1" d="M175.48,71.09a2.8,2.8,0,0,0-.57-.19A2.93,2.93,0,0,1,175.48,71.09Z"/><path class="cls-1" d="M170.5,69.22l.44,0Z"/><path class="cls-1" d="M172.89,69.05l1-.1Z"/><path class="cls-1" d="M169.23,69.25l.87,0Z"/><path class="cls-1" d="M182.17,73.66c.11-.11.24-.22.36-.33A4.77,4.77,0,0,0,182.17,73.66Z"/><path class="cls-1" d="M167.44,69h0Z"/><path class="cls-1" d="M168.59,69.22l.64,0Z"/><path class="cls-1" d="M181.33,70.29v0Z"/><path class="cls-1" d="M191.3,77.48v-.1q-.15,4.35-.3,8.36Q191.15,81.78,191.3,77.48Z"/><path class="cls-1" d="M158.27,64.63a2.22,2.22,0,0,0,.22-.36A2.42,2.42,0,0,1,158.27,64.63Z"/><path class="cls-1" d="M157.51,65.45a2.62,2.62,0,0,0,.25-.23Z"/><path class="cls-1" d="M157.11,65.72l-.41.21a4,4,0,0,0,.81-.48A3.49,3.49,0,0,1,157.11,65.72Z"/><polygon class="cls-1" points="191.58 69.16 191.58 69.16 191.58 69.17 191.58 69.16"/><path class="cls-1" d="M155.09,66.46l.57-.15Z"/><path class="cls-1" d="M156.26,66.11l.42-.18Z"/><path class="cls-1" d="M155.76,66.28l.43-.14Z"/><path class="cls-1" d="M172.66,71.16l-.72.08Z"/><path class="cls-1" d="M176.62,72.18a2.73,2.73,0,0,1,.14.26c0-.07,0-.14,0-.21l-.14,0Z"/><path class="cls-1" d="M176.3,71.7l0,0Z"/><path class="cls-1" d="M142,20.44a3.18,3.18,0,1,1-3.18,3.18A3.18,3.18,0,0,1,142,20.44Z"/><polygon class="cls-1" points="168.01 69.14 168.01 69.14 168.01 69.14 168.01 69.14"/><polygon class="cls-1" points="172.22 69.11 172.22 69.11 172.22 69.11 172.22 69.11"/><path class="cls-1" d="M172.77,71.15l1.14-.13-.43,0Z"/><path class="cls-1" d="M176.74,71.36c0-.69,0-1.38,0-2.06,0,.46,0,.93,0,1.4C176.73,70.92,176.74,71.14,176.74,71.36Z"/><path class="cls-1" d="M170.71,71.37l-1.13.12Z"/><path class="cls-1" d="M171.73,71.27l-.76.08Z"/><path class="cls-1" d="M112.34,219.39a4.67,4.67,0,0,0-3.49,8.66,4.59,4.59,0,0,0,1.75.34,4.67,4.67,0,0,0,1.75-9Z"/><path class="cls-1" d="M91.41,211a4.67,4.67,0,1,0-3.49,8.66,4.58,4.58,0,0,0,1.75.34,4.67,4.67,0,0,0,1.75-9Z"/><path class="cls-1" d="M171.63,219.39a4.67,4.67,0,0,0,1.75,9,4.59,4.59,0,0,0,1.75-.34,4.67,4.67,0,0,0-3.49-8.66Z"/><path class="cls-1" d="M192.56,211a4.67,4.67,0,0,0,1.75,9,4.58,4.58,0,0,0,1.75-.34,4.67,4.67,0,1,0-3.49-8.66Z"/><path class="cls-1" d="M133.26,227.82a4.67,4.67,0,1,0,2.58,6.07A4.67,4.67,0,0,0,133.26,227.82Z"/><path class="cls-1" d="M150.7,227.82a4.67,4.67,0,1,0,6.07,2.58A4.67,4.67,0,0,0,150.7,227.82Z"/><path class="cls-1" d="M169.58,71.49l1.13-.12.26,0,.76-.08.21,0,.72-.08h.11l.72-.08.43,0H174l.31,0,.15,0,.19,0,.27,0a2.8,2.8,0,0,1,.57.19,2.41,2.41,0,0,1,.33.2l.13.08a2.29,2.29,0,0,1,.35.34l0,0a2.52,2.52,0,0,1,.3.45h0l.14,0c0-.29,0-.58,0-.87s0-.44,0-.66c0-.47,0-.94,0-1.4a1,1,0,0,0-.95-.6l-1.89.25-1,.1-.68.06h0l-1.28.09-.44,0h-.4l-.87,0-.64,0a5.86,5.86,0,0,1-.58-.08h0a4.57,4.57,0,0,1-.56-.14h0a3.59,3.59,0,0,1-.5-.2v3.54a3.77,3.77,0,0,1,1-1.3Q168,71.49,169.58,71.49Z"/><path class="cls-1" d="M160.52,79.86a13.36,13.36,0,0,1-2.29-.2h-1q0,1.94.1,3.79a4.83,4.83,0,0,0,1.35-.25,7.53,7.53,0,0,1,1.39-.95,4.11,4.11,0,0,1,2.29,2.24q0-2.84,0-5.53Q162,79.86,160.52,79.86Z"/><rect class="cls-1" x="170.98" y="82.2" width="1.84" height="2.94"/><path class="cls-1" d="M177,91.87a.44.44,0,0,1,0-.2c0-1.63,0-3.29,0-4.94,0-3.85,0-7.72-.08-11.65a1.61,1.61,0,0,1-1.25.55q-.5,0-1.79-.1a11.19,11.19,0,0,1-1.79.1q-1.25.15-2.59.25a10.43,10.43,0,0,1-1.1-.1,1.7,1.7,0,0,1-1.39-1.15V92.17Zm-8.77-14.35a17.84,17.84,0,0,0,3.19.3,18.94,18.94,0,0,1,2.64-.3,5,5,0,0,1,1.64.5,2.22,2.22,0,0,1,.65,1.54,2.67,2.67,0,0,1-.3,1.3q-.1,2.39-.2,5a8.42,8.42,0,0,1,.19.94,8.54,8.54,0,0,1,.11,1.3q-.3,1.84-1.59,2a4,4,0,0,1-1.74-.55,12.48,12.48,0,0,1-2.24.2A4.46,4.46,0,0,1,169,90q-1.54-.1-1.69-2.64l0-.13a19,19,0,0,0,.8-5.7q-.3-2.69-1-3A1,1,0,0,1,168.24,77.52Z"/><path class="cls-1" d="M158.32,88.18q-.45,0-1,0,0,2.24,0,4.23,2.59-.1,4.93-.15V87.73a2.1,2.1,0,0,1-1.69.65A13.32,13.32,0,0,1,158.32,88.18Z"/><path class="cls-1" d="M185.67,69.95a26.21,26.21,0,0,1-2.94.25,3.21,3.21,0,0,1-.8-.65,7.45,7.45,0,0,1-.6-1.15c0,.25,0,.52,0,.8v.2q0,.34,0,.7v.18q0,1.57,0,3.52h0c0,.34,0,.69,0,1a4.65,4.65,0,0,1,.26-.45h0a4.61,4.61,0,0,1,.62-.76,4.77,4.77,0,0,1,.36-.33q.1.55,1.94.55l1.29-.13.25,0q.1-1.59.15-3.09Q186.07,70,185.67,69.95Z"/><path class="cls-1" d="M185.67,91.07V87.58a1.88,1.88,0,0,0-.45,0,1.1,1.1,0,0,1-.5.1,4.84,4.84,0,0,1-.75.15q-.3,0-1.3-.1a2,2,0,0,1-1.39-.95v5l4.17-.09Z"/><path class="cls-1" d="M158.47,74.58a5.83,5.83,0,0,1,1.44-.85,4,4,0,0,1,2.44,2.74q0-3.84,0-7.62a2.63,2.63,0,0,1-.4.65,2.74,2.74,0,0,1-2.29,1.1,9.88,9.88,0,0,1-2.74.6q0,1.84.1,3.64A5,5,0,0,0,158.47,74.58Z"/><path class="cls-1" d="M185.13,79.21a6.78,6.78,0,0,1-.85,0q-.3,0-1.35-.1a2.25,2.25,0,0,1-1.64-1.54V82.9a4.72,4.72,0,0,1,.95-1q.1.55,2,.55l1.54-.25q0-1.54.1-3h-.15A1.19,1.19,0,0,1,185.13,79.21Z"/><path class="cls-1" d="M119.9,100.34a9.25,9.25,0,0,0,3.34-1.84,45.08,45.08,0,0,1-.8-5.48c-.22-1.27-.47-3.14-.76-5.61l0-.36q-1.2,0-2.29,0v.23q-.24,7.76-.39,12.47Q119.06,100.34,119.9,100.34Z"/><path class="cls-1" d="M120.74,50.12a4.57,4.57,0,1,0-2.45-4A4.55,4.55,0,0,0,120.74,50.12Zm2.12-6.33a2.28,2.28,0,1,1-2.28,2.28A2.28,2.28,0,0,1,122.87,43.79Z"/><path class="cls-1" d="M161.1,50.64a4.57,4.57,0,1,0-4.19-2.75A4.55,4.55,0,0,0,161.1,50.64Zm0-6.85a2.28,2.28,0,1,1-2.28,2.28A2.28,2.28,0,0,1,161.1,43.79Z"/><path class="cls-1" d="M141.94,144.44c.24.17.51.34.81.51q7.16,4.25,7.34,10a7.51,7.51,0,0,1-.27,2.21l5.8-.17q5-7.92,5-13.36v-.09q-5.8.18-12.58.43Q145.11,144.28,141.94,144.44Z"/><path class="cls-1" d="M163.67,180.52q-6.07.26-17.84.26a10.06,10.06,0,0,0-1.9.26,18.81,18.81,0,0,1,.09,2q0,3.57-.27,8.93,9.23-.17,20.55-.17v-9.62A1.83,1.83,0,0,0,163.67,180.52Z"/><path class="cls-1" d="M162.35,65.72h0l.06.09v-.15l-.13,0Z"/><path class="cls-1" d="M225.27,164.78q-2.89,3.4-6,6.38,19.92-.08,25.17-.68,2,0,4.71-.25l1.72-.6a28.15,28.15,0,0,1-2.71-5.45Q235.77,164.44,225.27,164.78Z"/><path class="cls-1" d="M273.58,98l-24.44-8.61c1.13-.66,2.27-1.31,3.45-1.94a4.13,4.13,0,0,0,.47-7c-3-2.18-7.77-5.94-12.37-9.58l-.64-.51c1.59-1.3,3.22-2.59,4.92-3.86a4.12,4.12,0,0,0-.53-7c-3.29-1.72-8.53-4.77-13.61-7.71S220.36,45.83,216.91,44a4.12,4.12,0,0,0-5.1,1,155.94,155.94,0,0,0-12.58,17.74l-4-1.42a8.69,8.69,0,0,0-.79-.8,8.06,8.06,0,0,0-5.8-2.13,5,5,0,0,0-1.15.13l-.12,0-17.45-6.15L177.27,25l1.19-.9a4.25,4.25,0,1,0-5.12-6.77l-13,9.82L145.65,2.1l0,0-.13-.2-.1-.15-.15-.19-.11-.14L145,1.26l-.17-.17-.1-.09L144.5.83l-.11-.07-.24-.16,0,0L144,.51,143.78.4l-.2-.08L143.4.24l-.22-.07-.17,0-.22,0-.2,0-.18,0-.24,0h-.51l-.34,0h0l-.36.08h0l-.36.11-.05,0-.32.13L140,.47l-.21.11,0,0-.17.11-.18.12-.14.11-.19.16-.07.07-.23.23,0,0-.24.29,0,0c-.07.1-.14.21-.21.32h0L123.63,27.2l-13-9.82a4.25,4.25,0,1,0-5.12,6.77l1.19.9.25.92,7.12,26.49L98.4,58a14.16,14.16,0,0,0-1.91-.13,5,5,0,0,0-1,.11A10.49,10.49,0,0,0,90,61l-1,.35A156.7,156.7,0,0,0,77.29,45.06a4.12,4.12,0,0,0-5.1-1c-3.45,1.81-8.77,4.9-13.92,7.88s-10.32,6-13.61,7.71a4.12,4.12,0,0,0-.53,7c1.71,1.26,3.34,2.55,4.92,3.86l-.64.51c-3.9,3.08-7.9,6.25-10.87,8.47L36,80.52a4.12,4.12,0,0,0,.47,7q1.57.84,3.07,1.71L14.5,98a21.71,21.71,0,0,0-14,25L13,181.58C7.18,184.8,5.59,189,5.36,192.2q0,.24,0,.49c0,8.6,5.54,14.25,14.46,14.76h.86l3.13-.16a21.68,21.68,0,0,0,5.16,3l107,43.08a21.71,21.71,0,0,0,16.22,0l107-43.08a21.71,21.71,0,0,0,13.12-15.59l1.27-5.93c3.4-1.48,7.09-4.74,8.86-11.73a23.63,23.63,0,0,0,1-7.38,6.59,6.59,0,0,0-.47-2.44,10.89,10.89,0,0,0,2.2-5.11,6.83,6.83,0,0,0,.08-1,14.22,14.22,0,0,0-3.63-9.72l6.06-28.25A21.71,21.71,0,0,0,273.58,98Zm-76.28,32.56c.28,1.19.57,2.32.9,3.39q-.38.29-.73.58c-1.73-2.22-2.21-2.9-5.59-7.15,1.09-1.32,2.22-2.6,3.35-3.88q1.38-1.55,2.8-3.06,2.4-2.55,4.91-5,1.57-1.52,3.18-3l7-6a151.69,151.69,0,0,1,20.79-14.15l1.68-.93c1.47-.81,2.94-1.6,4.44-2.36l.64.81c.75,1,1.6,2.08,2.51,3.29l.93,1.25,1.52,2c4.63,6.29,10.07,13.88,13.31,17.95-8.21,1.85-15.29,2.86-22.08,4.41l-.33-.06a7.8,7.8,0,0,0-1.08-.08h-.32a31,31,0,0,0-10.88,2.49c-.2.09-.4.18-.6.29l-.19.11-.37.22-.21.15-.31.23-.21.17-.27.24-.2.19-.24.25-.19.21-.22.28-.16.21q-.17.24-.31.49h0c-.11.2-.22.4-.31.61l-.5-.21q-.8-.34-1.65-.61h0q-.84-.27-1.73-.48l-.1,0c-.49-.11-1-.21-1.51-.29l-.3-.06-.12,0c-.63-.1-1.27-.17-1.94-.23a6.62,6.62,0,0,1-1.91-.46,1.37,1.37,0,0,1-.41-.25,7.63,7.63,0,0,0-5.51-2.31,7.83,7.83,0,0,0-2.63.46,7.5,7.5,0,0,0-2.35,1.36,6.86,6.86,0,0,0-2.2,3.5,6.53,6.53,0,0,0-.2,1.57c0,.09,0,.49-.15,1.7A6.69,6.69,0,0,0,197.31,130.59Zm-3.86,16.72a15.45,15.45,0,0,0-6.23,5.4l-.31-.25a19.79,19.79,0,0,0-5.12-3.2,10.33,10.33,0,0,0,5.86-9.68,11.43,11.43,0,0,0-4.68-9,18.74,18.74,0,0,0-9.8-4.53,7.87,7.87,0,0,0-1.15-.09,7.58,7.58,0,0,0-1.13.08,12.6,12.6,0,0,0-2.83.76c-1-3-4-6.93-12.71-7.62-.21,0-.41,0-.84,0-5.86.16-10.2,1.41-13.28,3.8a6.85,6.85,0,0,0-2.65,4.77,7.47,7.47,0,0,0-1.78-.94,7.93,7.93,0,0,0-2.87-.48,15.57,15.57,0,0,0-1.72-2.09,16,16,0,0,0-9.34-4.46,8.31,8.31,0,0,0-1.18-.09l-.57,0c-1.74.13-3.51.32-5.26.57a7.74,7.74,0,0,0-2.87,1c-.69.42-1.34.78-1.95,1.09-.15.07-.29.15-.43.23a10.58,10.58,0,0,0-3.32,3,6.64,6.64,0,0,0-1.23,3.84,6.78,6.78,0,0,0,1.08,3.68,48.42,48.42,0,0,1-4.54,13.6,69.84,69.84,0,0,1-10,15.1A6.77,6.77,0,0,0,91,164.57a6.57,6.57,0,0,0-.17,2.42c0,.19.05.39.09.58,0-.19-.06-.38-.09-.58a6.57,6.57,0,0,1,.17-2.42c-1.35-8.95-10-12.3-13.95-13.35a7.85,7.85,0,0,0-2-.28,7.34,7.34,0,0,0-.75,0,27.46,27.46,0,0,0-5.72,1.24,8.82,8.82,0,0,1-2.24.43H65.9c-8.1.45-17.86,1-29,1.52l-.74,0a7.26,7.26,0,0,0-1.94-1.61,7.71,7.71,0,0,0-3-1c10.49-.62,23.43-1.11,38.58-1.46,1.42,0,3.31.07,5.64.21a40.71,40.71,0,0,0,7.22.81c6.07,0,13-2.66,14.11-10.13a6.13,6.13,0,0,0,.08-1,15.43,15.43,0,0,0-.68-4.55l.08-.1c.92-1.19,1.87-2.43,4.22-5.37a4.12,4.12,0,0,0-.05-5.2c-1-1.25-2.09-2.47-3.16-3.68l4.74-3.43a4.12,4.12,0,0,0,1.34-5l-.08-.18a12.2,12.2,0,0,0,5.58-1.77,8.48,8.48,0,0,0,6.29,3h.23a5,5,0,0,0,.88-.08,13.14,13.14,0,0,0,7-4.06,12,12,0,0,0,8.77,3.73l.53,0c4.29-.46,6.15-2.79,6.9-4.25a11.22,11.22,0,0,0,1.31-4.76,13.15,13.15,0,0,0,.12-1.87,5,5,0,0,0-3.6-4.82,7.67,7.67,0,0,0,2.84-5.29q0-.2,0-.41a8,8,0,0,0-.66-3.19,7,7,0,0,0,.81-3.28,9.09,9.09,0,0,0-2.76-6.64l-.25-.25a8.18,8.18,0,0,0,.42-2.62,7.15,7.15,0,0,0-.49-2.59,6.88,6.88,0,0,0,2.23-5.13,9.66,9.66,0,0,0-.31-2.44h6.23a5,5,0,0,0,1.22,4c.18,5.93.41,11.92.69,17.86a8.19,8.19,0,0,0-3.84,6.51c0,.08,0,.16,0,.24a9.17,9.17,0,0,0,2.71,6.88,5,5,0,0,0-2.29,4.72c.34,3.45,2.81,7.57,12.67,7.57A22.89,22.89,0,0,0,167,111.08l.39-.22c4.27-2.7,5.42-5.78,5.56-8.05h.18c3.23,5.9,7.39,9.45,12.37,10.58a4.12,4.12,0,0,0,1.59,4.3l4.74,3.43c-1.07,1.21-2.13,2.43-3.16,3.68a4.12,4.12,0,0,0-.05,5.2c2.35,2.95,3.3,4.18,4.22,5.37.52.68,1.05,1.37,1.83,2.36q-.22.36-.41.72a11.58,11.58,0,0,0-.63,1.39,11.12,11.12,0,0,0-.67,3,4.53,4.53,0,0,0,0,.52A16.24,16.24,0,0,0,193.45,147.32ZM176.71,198q0,5.27-3.63,5.28a37.72,37.72,0,0,1-6-.77h-6.79q-2.26.17-18,.17c-2.59.29-4.4.54-5.43.77q-5,0-5.26-7.83c0-.63,0-1.36.09-2.21a67,67,0,0,0,.9-11.4v-6.21a5.24,5.24,0,0,0-1.9-4.34.52.52,0,0,1-.45-.34c.61-.62,1.93-1,4-1.11a25.07,25.07,0,0,1,5.7,1.19q12.23,0,25.45-.43a19.25,19.25,0,0,1,4.34-1.28,7,7,0,0,1,3.17.68q4.25,1.61,4.26,4.34a17.15,17.15,0,0,1-.64,4.42c0,.91,0,2-.09,3.32Q176.44,190.39,176.71,198Zm-5.89-32.42q-11.87.17-28,.76a114.3,114.3,0,0,1-12.41.59q-5.61-.76-6.25-5.61.18-3.49,4.08-6.21.45,2.3,5.25,2.29,2.8-.08,5.52-.08-2.09-2.81-2.53-8.25a31.6,31.6,0,0,1,.45-4.6h-.73q-5.43-.77-6.07-5.45.19-3.32,3.9-5.87c.3,1.48,2,2.21,5,2.21l8.33-.17v-5.1a1.66,1.66,0,0,0-1.44-1.88q2.62-2,8.78-2.21,6.43.52,6.43,3.66v5.1l3.53-.17a13,13,0,0,0,5.07-.85,5.16,5.16,0,0,1,2.26-.94,11.35,11.35,0,0,1,6.07,2.89,4.68,4.68,0,0,1,2.17,3.83q0,4.34-5.61,4.34c-.84-.11-1.6-.19-2.27-.25a5,5,0,0,1,.09.85,14.55,14.55,0,0,1-4.26,10.29c-.54.63-1.08,1.23-1.63,1.79a14.29,14.29,0,0,1,1.45-.08,14,14,0,0,0,5.26-.86,5.23,5.23,0,0,1,2.35-.93,12.13,12.13,0,0,1,6.43,3,4.88,4.88,0,0,1,2.26,3.91q0,4.6-5.89,4.6A60.56,60.56,0,0,0,170.83,165.63ZM121.48,160a16,16,0,0,1-.45,3.75q-.09,21.45-.09,34.72,0,6.29-5.52,6.89-4.8,0-7.33-9.87a41.63,41.63,0,0,1,1.54-8.77q0-4,.55-10.47.09-5,.18-10.38a17,17,0,0,1-6.07,2.55,22.79,22.79,0,0,1-4.34-.43,1.89,1.89,0,0,1-1.72-1.79,76.21,76.21,0,0,0,11.05-16.59,52.73,52.73,0,0,0,5.43-17.52,4.69,4.69,0,0,0-.27-1.71c-.67-.51-1-.85-1-1a3.46,3.46,0,0,1,1.08-.94c.79-.39,1.6-.85,2.45-1.36,1.56-.23,3.13-.4,4.7-.51a8.6,8.6,0,0,1,5.07,2.3,7.48,7.48,0,0,1,2.27,5.45q0,5.1-7.43,17.78a28,28,0,0,1-2.36,4.34A4.07,4.07,0,0,1,121.48,160Zm-84.39,1.11q16.94-.85,29.25-1.53a16.54,16.54,0,0,0,4.53-.77,19.75,19.75,0,0,1,4.17-.94q8.78,2.38,8.78,9.11-.55,4.16-6.61,4.16a31.93,31.93,0,0,1-6.33-.85q-4.17-.17-6.61-.17-19.38.68-32.14,2-7.43-.42-7.43-7.74.36-3.66,5.7-5.87Q30.57,161.12,37.09,161.12Zm-10-16.26q-7.43-.42-7.43-7.74.18-3.74,5.71-6,.18,2.64,6.7,2.64Q55,133,71.77,132.53a13.73,13.73,0,0,0,2.48-.27c.67-.12,1.37-.28,2.13-.5s1.58-.49,2.33-.67l.83-.18q.51-.1,1-.17a21.44,21.44,0,0,1,2.21.72q5.3,2.06,6.38,6.26a9.15,9.15,0,0,1,.28,2.3,4.36,4.36,0,0,1-1.07,2.35q-1.66,1.82-5.72,1.82a35.6,35.6,0,0,1-6.25-.76q-4.17-.25-6.7-.26Q44,143.77,27.13,144.87ZM176.91,97.95q1.56,1.17,5.95,1.73c1.19.15,2.52.27,4,.36l.17,0a11.29,11.29,0,0,1,4.21,1.62,3.75,3.75,0,0,1,1.75,3,5.7,5.7,0,0,1-.07.91,3.18,3.18,0,0,1-1.08,2c-.27.5-1,.83-2,1a11.83,11.83,0,0,1-1.69.11l-.45-.06q-6.18-.79-10.36-8.76A10.6,10.6,0,0,1,176.91,97.95ZM196.27,79.1l.05-1.5,0-1c.81-1.63,1.65-3.24,2.52-4.84q2.07-3.82,4.34-7.53A151.11,151.11,0,0,1,215,47.67c6.73,3.53,20.79,12.06,27.53,15.59-2,1.49-3.93,3-5.79,4.56-3.31-2.6-6.43-5-8.69-6.67a4.12,4.12,0,0,0-5.2.3q-3.77,3.44-7.28,7.1-3.22,3.35-6.22,6.87-2.21,2.58-4.29,5.26c-.31.4-.63.79-.93,1.19q-3.07,4-5.86,8.21a10.08,10.08,0,0,0-2.31-2.29C196.05,85,196.16,82.12,196.27,79.1Zm-1.06,32.33a6.2,6.2,0,0,0,.46-.51,8,8,0,0,0,1.81-2.95,9.79,9.79,0,0,0,.54-3.29q0-.11,0-.22a8.67,8.67,0,0,0-.71-3.1,7.42,7.42,0,0,0,2.72-4.9,5,5,0,0,0,0-.65c0-.28,0-.55,0-.82q3.84-6,8.23-11.67c.31-.4.63-.79.95-1.18q2.12-2.66,4.35-5.24,3.05-3.51,6.32-6.83,2.81-2.85,5.77-5.57c2.07,1.5,4.88,3.68,7.93,6.08l3.29,2.6c2.22,1.76,4.48,3.54,6.59,5.2,2.77,2.17,5.29,4.12,7.2,5.5-2.26,1.21-4.42,2.47-6.53,3.77l-.9-1.15a4.12,4.12,0,0,0-5.09-1.11l-.2.1q-3.84,2-7.55,4.11l-1.62.95q-6.21,3.7-12,7.93-3.61,2.63-7.06,5.47-3.82,3.14-7.45,6.52-1.59,1.48-3.13,3-2.26,2.23-4.43,4.57l-5.11-3.7.31-.68A8.55,8.55,0,0,0,195.21,111.43ZM156.07,41A7.11,7.11,0,0,1,166.13,51.1l0,0a7.11,7.11,0,0,1-10-10.08Zm-1,25.42.57-.15.1,0,.43-.14.07,0,.42-.18h0l.41-.21a3.49,3.49,0,0,0,.4-.27h0l.25-.23h0A2.09,2.09,0,0,0,158,65a2.46,2.46,0,0,0,.29-.33,2.42,2.42,0,0,0,.22-.36h0l-.15-.1.15.05a2.35,2.35,0,0,0,.24-1,7.47,7.47,0,0,1,3.55,2.38l.14,0v-.39q0-1.15-.7-1.25l0,0h0a3.55,3.55,0,0,1,2.74-1.49q2.64.2,2.74,1.59v0a2.33,2.33,0,0,1,0,.4c1.28,0,2.66-.07,4.11-.14l2.76-.16a6.8,6.8,0,0,0,2.13-.45l.06,0c.41-.14.83-.31,1.3-.52q2.89.4,3.69,1.64,0-.25.1-.45l.55-.7a2.45,2.45,0,0,0,1.44.5,24.17,24.17,0,0,0,5.33-.75,3.15,3.15,0,0,1,2.39.8,2.83,2.83,0,0,1,1.15,2.24,3.53,3.53,0,0,1-.55,2l0,.61h0q-.14,4.25-.28,8.21v.1q-.15,4.3-.3,8.25c0,1.1-.08,2.17-.12,3.23l-.07,1.81c2.58.85,4,2.33,4.19,4.43a5.59,5.59,0,0,1,0,.6,2.32,2.32,0,0,1-1.6,2,5.39,5.39,0,0,1-1.89.29,16,16,0,0,1-3.24-.45l-.51,0c-1.19-.05-2.19-.08-3-.08l-1.34,0q-11.14.19-20,.47a11.27,11.27,0,0,1,2.19.85,3.84,3.84,0,0,1,2.29,3.39q0,2.29-3.24,4.33a17.84,17.84,0,0,1-8.27,1.89q-7.37,0-7.67-3,8.27-.65,11.66-6.68a1.36,1.36,0,0,0,.45-.65q-4.73.2-8.72.4-3.79-.2-3.79-4.18.1-2,2.84-3.24.1.85,1.25,1.2c-.08-1.55-.14-3.12-.21-4.67q-.44-9.35-.73-18.79a2.63,2.63,0,0,0-1.25-2.44,4.59,4.59,0,0,1,2.54-.55A8.05,8.05,0,0,1,155.09,66.46ZM142,17.84a5.78,5.78,0,1,1-5.78,5.78A5.78,5.78,0,0,1,142,17.84ZM131.63,46.28V38.07a1.43,1.43,0,0,1,.72-1.24l8.92-5.15a1.43,1.43,0,0,1,1.43,0l8.92,5.15a1.43,1.43,0,0,1,.72,1.24v10.3a1.43,1.43,0,0,1-.72,1.24l-7.16,4.14-1.76,1a1.44,1.44,0,0,1-1.43,0l-1.15-.66h0l-7.77-4.49a1.43,1.43,0,0,1-.72-1.24ZM117.84,41a7.11,7.11,0,1,1,0,10.08l0,0A7.11,7.11,0,0,1,117.84,41Zm-12.53,23a3.19,3.19,0,0,1,.85-.2,13.43,13.43,0,0,1,2.39-.35,8.07,8.07,0,0,1,2.16.64l0,0a4.39,4.39,0,0,1,.58.33l.75-.1h.63q5.56-.14,11.07-.23,1,0,3.59-.2,1.89-.45,3-.64a2.2,2.2,0,0,1,1,.32l.12-.07-.12.11.07,0a8.69,8.69,0,0,1,1.7,1.38,4.39,4.39,0,0,1,.54.65,4.26,4.26,0,0,1,.71,2.44q0,1.94-2.54,1.94a19.29,19.29,0,0,0-3.79-.45l-15,.52-.76.27v.31q-.2,5.63-.4,11.06a1.12,1.12,0,0,1,.35,0q6.13-.1,12.11-.25,1.1,0,3.84-.25a29,29,0,0,1,3-.65q1.1,0,2.74,1.69a4.11,4.11,0,0,1,1.3,3.09q0,1.89-2.49,1.89a24.92,24.92,0,0,0-3.84-.35q-1.64,0-3.29,0c0,.18.09.36.14.54a40.24,40.24,0,0,0,1.75,5.34,4,4,0,0,0,1.59-2.69.87.87,0,0,0-.4-.8,3.79,3.79,0,0,1,2.24-.75q4.13.45,4.13,3.24-.15,1.84-3.59,3.39a11.9,11.9,0,0,1-2.44.85,20.22,20.22,0,0,0,1.59,2.74q2.94,3.54,5.18,3.54a7.19,7.19,0,0,1-.1,1.35,6.32,6.32,0,0,1-.75,2.94q-.65,1.34-3,1.59-4.83,0-7.67-5.93-.3-.95-.55-1.84-4.53,7.47-8.47,8.17-3.24-.15-3.69-3.84a7,7,0,0,1,.6-1.79,2.94,2.94,0,0,0,1-2.19q.3-7.57.35-13.65h-1.25a4.87,4.87,0,0,1-.7,0q-.15,4.18-.35,8.27-.6,7.62-4.68,10.61-1.3,1.44-5.23,1.54h-.1l-.3.16-.11-.22a.41.41,0,0,1-.14-.08l.06-.08q3.16-4,4.29-11.42.28-1.82.43-3.84c.15-1.43.27-3.24.36-5.4q.24-5.47.28-14.06v-.06c0-.94,0-1.89,0-2.89a9.4,9.4,0,0,0-.57-3.69,2.43,2.43,0,0,0-.93-1.15A1.34,1.34,0,0,1,105.31,64.07Zm27.35,11.81q0,2.54-3,2.54a26.85,26.85,0,0,0-3.94-.35q-1.3,0-3.14.15a42.54,42.54,0,0,1-6.18.4,3.42,3.42,0,0,1-3.14-3.09,4.13,4.13,0,0,1,2.09-3.19q.2,1.15,2.59,1.15,2.89-.1,6.43-.4a7.12,7.12,0,0,0,2.69-.45,2.42,2.42,0,0,1,1.2-.5,6.35,6.35,0,0,1,3.24,1.59A2.82,2.82,0,0,1,132.66,75.88Zm-38,10q0-2.74,0-5.47c-.16-.35-.34-.7-.5-1.05l-.95.07q-.4,0-1.64-.1a2.56,2.56,0,0,1-1.6-1l0-.05A5.5,5.5,0,0,1,89,75.63a4.59,4.59,0,0,1,1.67-3.18l.37-.31q.1.65,2.44.65l1.1-.1c0-.59,0-1.18,0-1.76,0-.36,0-.71,0-1.07,0-1.06,0-2.11,0-3.15q-.25-1.49-1.15-1.59c0-.27,0-.43,0-.5a5.53,5.53,0,0,1,3.09-1.74,7.45,7.45,0,0,1,3.64.85,2.47,2.47,0,0,1,1,2.09c0,.52-.1,1.12-.16,1.78l-.09,1v3.64l1.44-.15a3.94,3.94,0,0,1,2.05,1.12l.05,0a5.23,5.23,0,0,1,1.24,3.07q0,2.74-2.24,2.74-.75,0-2.54-.15v5.59l.23.56a24.89,24.89,0,0,0,4.15-1.62l.15.35a12.36,12.36,0,0,1-1,2.83,9.88,9.88,0,0,1-1.75,2.48,9.74,9.74,0,0,1-1.12,1l-.7.5V102c0,.39,0,.77-.08,1.12a8,8,0,0,1-.73,2.73,3.68,3.68,0,0,1-2.13,1.93,6.67,6.67,0,0,1-2.84.65,12.57,12.57,0,0,1-2.49-.2,1.24,1.24,0,0,1-.9-.34,1.92,1.92,0,0,1-.49-1.16q.2-.7.5-1.59a8.68,8.68,0,0,0,.15-1.69q0-1.74-2.44-3.34c1.15.12,2.16.23,3,.35l.4.05q1.89-.1,1.89-1.79c0-.85,0-1.69,0-2.53,0-.67,0-1.34,0-2-.35.15-.66.26-1,.36a5.72,5.72,0,0,1-1.72.33q-2.24,0-3.09-3.54A13.69,13.69,0,0,1,89.43,88,9.27,9.27,0,0,1,90,86.44a1.13,1.13,0,0,0,1,.6q1.89-.2,3.59-.55C94.64,86.28,94.65,86.08,94.64,85.87ZM46.58,63.26C53.31,59.73,67.37,51.2,74.1,47.67A151.69,151.69,0,0,1,85,62.71q1.66,2.61,3.2,5.3l-.21.14a9.86,9.86,0,0,0-3.7,5.32A9.57,9.57,0,0,0,84,75.26a5,5,0,0,0,0,1A11.52,11.52,0,0,0,85,80l-1.21.43c-1.4-1.78-2.85-3.53-4.32-5.25-2.33-2.72-4.75-5.38-7.28-7.95q-2.9-2.94-6-5.75a4.12,4.12,0,0,0-5.2-.3c-2.26,1.64-5.38,4.06-8.69,6.67C50.51,66.27,48.59,64.75,46.58,63.26ZM38.46,83.86c2.83-2,7-5.35,11.34-8.76l2.44-1.93,3.29-2.6c3-2.4,5.86-4.58,7.93-6.08,1.51,1.38,3,2.79,4.43,4.23q3.85,3.82,7.41,7.9c1.5,1.71,3,3.45,4.39,5.22l0,0q2.34,2.94,4.54,6a20,20,0,0,0-.39,3.32A5,5,0,0,0,84,92.54a11.66,11.66,0,0,0,1.77,4.11,5,5,0,0,0,.86,7.7h0q-.18.56-.31,1a5,5,0,0,0-.15,2,7.36,7.36,0,0,0,1,2.85A6.09,6.09,0,0,0,90.82,113a6.5,6.5,0,0,0,1.18.21,18.47,18.47,0,0,0,3.1.23,11.47,11.47,0,0,0,3.76-.63c.23.5.47,1,.69,1.49L94.44,118q-2.17-2.33-4.43-4.57-1.55-1.53-3.13-3-3.62-3.38-7.45-6.52Q76,101.1,72.36,98.47A155.31,155.31,0,0,0,58.42,89.4l-.07,0q-3.62-2.08-7.37-4l-.23-.1a4.09,4.09,0,0,0-4.85,1.21l-.55.69-.7.25C42.65,86.2,40.59,85,38.46,83.86ZM45.32,94l.06-.09.58-.77c.91-1.21,1.75-2.33,2.51-3.29l.64-.81c1.36.69,2.71,1.41,4,2.14l.07,0A151.7,151.7,0,0,1,76,106.49q3.15,2.55,6.16,5.27l.81.74q1.61,1.47,3.18,3,2.51,2.44,4.91,5,1.42,1.51,2.8,3.06l-4.62,3.35a23,23,0,0,0-4.22-2c-.78-.29-1.59-.56-2.44-.78a7.66,7.66,0,0,0-2-.27,8.29,8.29,0,0,0-1,.07l-.26,0a28.77,28.77,0,0,0-4.16.94l-1,.31a9.59,9.59,0,0,1-2.32.43h-.71C57.6,118.41,46,118,30.2,114.41,33.88,109.8,40.38,100.66,45.32,94ZM6.73,121.73a15.36,15.36,0,0,1,9.89-17.67l21.85-7.69-.06.09L36.33,99.3c-3.46,4.74-7,9.63-9.35,12.54a4.12,4.12,0,0,0,2.32,6.59c4.31,1,8.25,1.7,12.06,2.41,7.43,1.38,13.89,2.58,20.44,5-8.9.28-18.88.6-29.8,1l-.79,0a7.14,7.14,0,0,0-1.91-1.59,7.81,7.81,0,0,0-6.77-.48c-8.53,3.42-10,9-10.19,12,0,.11,0,.21,0,.32,0,8.55,5.51,14.17,14.37,14.67h1l1-.07a8.42,8.42,0,0,0-1.22.39c-7.7,3.19-9.73,8.07-10.09,11.59,0,.21,0,.43,0,.64,0,8.55,5.5,14.17,14.36,14.67h.45q.39,0,.78,0c8.26-.83,18.86-1.47,31.5-1.92,1.38,0,3.23.05,5.51.14a37.52,37.52,0,0,0,7.31.89c9.06,0,13.09-5,13.89-9.89,0-.15-.07-.31-.1-.47,0,.16.06.32.1.47a9.07,9.07,0,0,0,7.41,6.61,29.91,29.91,0,0,0,4.28.52c0,.19,0,.39,0,.59-.34,4-.51,7.29-.55,10q-.35,1.43-.62,2.67c-2.19-4.25-6.51-7.39-12.56-9a7.9,7.9,0,0,0-2-.25,7.67,7.67,0,0,0-1,.06,31.5,31.5,0,0,0-5.64,1.3,8.51,8.51,0,0,1-2.42.43c-14.63.34-32.4.79-52.8,1.36l-.84,0a7.15,7.15,0,0,0-2-1.69,7.69,7.69,0,0,0-3.18-1Zm18.84,78.52-5.32.27a11.94,11.94,0,0,1-2.43-.38q-5.08-1.37-5.09-7.45a5.42,5.42,0,0,1,1.91-3.62,13.25,13.25,0,0,1,3.89-2.33,2,2,0,0,0,.61,1.3,4.43,4.43,0,0,0,2,1,17,17,0,0,0,4.16.42q30.61-.84,52.88-1.36a16.5,16.5,0,0,0,4.52-.77,24.27,24.27,0,0,1,4.35-1q8.78,2.3,8.78,9.27-.64,4.09-6.7,4.09a38.23,38.23,0,0,1-6.43-.77q-4.16-.17-6.61-.17-26,.46-45.1,1.27Zm124.2,47.16a15.33,15.33,0,0,1-11.45,0L37.23,206.71q4.63-.17,9.62-.33,13.4-.42,29.33-.7c1.43,0,3.34.05,5.68.14a43.41,43.41,0,0,0,7.29.79c4.84,0,10.21-1.71,12.73-6.21h0c2.13,6,6.11,11.91,13.53,11.91a7.55,7.55,0,0,0,.84,0c5-.54,8.66-3.06,10.59-7a12,12,0,0,0,10,5.13,7.79,7.79,0,0,0,1.7-.19c.32-.07,1.36-.26,4.17-.58,12.71,0,16.41-.09,17.84-.17h5.84a40.11,40.11,0,0,0,6.68.77c5.08,0,11-3.2,11-12.45-.17-5-.27-10.13-.27-15.36,0-1,.07-1.87.09-2.64.1-.43.19-.86.26-1.28h.07l.05.17c1.22,3.07,4.36,7.93,12.2,9.22a7.49,7.49,0,0,0-4.2,2.31,6.63,6.63,0,0,0-1.55,6.17c2.26,8.55,8.29,13.79,17,14.76a8.14,8.14,0,0,0,.87,0c7.72,0,15.1-4.11,21.94-12.24l.31.16a6.54,6.54,0,0,0-.48,2.92,8.61,8.61,0,0,0,2.9,5.87,11.36,11.36,0,0,0,3.74,2.22,17.29,17.29,0,0,0,3.28.82Zm122.33-82.47h-.64c-.49,0-1,0-1.65-.09a42.6,42.6,0,0,1-4.32-.68c-2.66-.11-4.77-.17-6.34-.17h-.63a39.75,39.75,0,0,0,8.6,4.51c.62.22,1.22.41,1.79.58.78.23,1.5.41,2.19.56a15.61,15.61,0,0,0,3.18.39,3.29,3.29,0,0,0,1.72-.43,17,17,0,0,1-.73,5.53q-1.81,7.48-7,7.81l-.49,0a9.57,9.57,0,0,1-1.79-.17,14.68,14.68,0,0,1-5.82-2.72,73.94,73.94,0,0,1-1,8.25q0,6.47-1.72,9.11a8.26,8.26,0,0,1-.27.86c-.92,2.55-3,4.4-6.34,5.52a34.25,34.25,0,0,1-5.62.51c-1,0-1.92,0-2.73-.12-3-.3-4.6-1.17-4.7-2.6a8.36,8.36,0,0,0,.9-3.23q0-3.24-4.44-5.45a.9.9,0,0,1,.37-.59,49.14,49.14,0,0,0,6.33.85c2.48,0,3.9-.43,4.26-1.28q2.18-.68,2.81-11a2.93,2.93,0,0,0-1.54-.68q-6.8.43-13.13.68-1.45,5.11-8.42,13.53-8.15,9.78-16.3,9.78-8.42-.94-10.69-9.53,2.18.17,3.35.17,13-1.61,19.65-13.53-4.89.09-9.6.09a4,4,0,0,1-3.53-1.87,17.17,17.17,0,0,1-7.15,1.7q-7.43,0-9.41-5,8-1.44,17.48-10.89-4.53.17-8.7.43-7.16-.34-7.15-7.4.27-3.49,5.52-5.61.18,2.47,6.43,2.46l13.22-.34q2.27-2.89,3.9-5.36-8.06.34-14.76.85-6.79-.43-6.79-7.06a4.28,4.28,0,0,1,.11-.65c0-.1,0-.2.08-.3h0a4.79,4.79,0,0,1,.61-1.29v0c.1-.15.22-.29.33-.43l.2-.24c.11-.12.23-.24.36-.35l.31-.28.38-.3.43-.3.39-.25.6-.34.36-.19c.34-.17.7-.34,1.09-.49a2,2,0,0,0,.12.52v0a2,2,0,0,0,.25.44,2.23,2.23,0,0,0,.47.45l.05,0,.27.16.16.08.27.12.48.16.23.06.44.1.22,0,.73.1a15.5,15.5,0,0,1-1.77-2.6,23.63,23.63,0,0,1-1.28-2.73l0-.11q-.19-.5-.38-1v0h0c-.2-.56-.38-1.15-.57-1.76l-.19-.65-.18-.65,0-.12c-.12-.46-.24-.92-.35-1.4.12-1.19.18-2,.18-2.29a7.78,7.78,0,0,0,.6.57l.33.25.33.25.49.3.23.14c.2.11.41.21.62.31l.16.08c.24.11.49.2.75.3l.09,0q.42.14.86.26h0q.46.12,1,.22h0c.34.07.69.12,1,.17l.56-.37,0,0a4.09,4.09,0,0,1-.2.38l.19,0c.46,0,.91.09,1.34.15l.38.06.88.16.39.09.82.22.31.09c.36.11.7.24,1,.38h0a10,10,0,0,1,1,.51l.22.13a8.43,8.43,0,0,1,.71.48l.19.14a7.47,7.47,0,0,1,.76.69l.08.1a7,7,0,0,1,.55.68l.15.23a7.17,7.17,0,0,1,.42.72l.08.16a7.78,7.78,0,0,1,.37,1c0,.08,0,.17.07.25q.11.4.19.82c0,.1,0,.2.05.31a10.87,10.87,0,0,1,.12,1.14,7.62,7.62,0,0,1-.37,1.78l5-.17a39.12,39.12,0,0,0,1.9-10q0-2-1.18-2.38a23.08,23.08,0,0,1,8.15-1.88q6.8.94,6.79,6.21a7.3,7.3,0,0,1-1.18,3.75c-.43,1.3-.88,2.58-1.36,3.83l5.62-.17q6.06-5.28,6.25-9.62a2.45,2.45,0,0,0-.73-1.87,8.81,8.81,0,0,1,4.52-1.28q8.42.76,8.42,6a7.27,7.27,0,0,1-2.53,4.85q7.78,2.13,7.78,8.26-.54,3.66-6,3.66a27.75,27.75,0,0,1-5.52-.77q-3.8-.17-6.07-.17-8.42.25-15.85.51-1.45,3-3.07,5.7,15.66-.35,28.61-.6a16.35,16.35,0,0,0,4.35-.76,18.08,18.08,0,0,1,4-.94,18.7,18.7,0,0,1,2.83,1,12.24,12.24,0,0,1,2.06,1.16,7.67,7.67,0,0,1,3.44,6.62Q277.19,164.72,272.09,164.93Zm9.26-43.21-5,23.22a13.86,13.86,0,0,0-5.43-10.53,11.39,11.39,0,0,0,.19-1.43c0-.15,0-.3,0-.45,0-2.72-1.09-11.69-15.1-13a6.71,6.71,0,0,0-.71,0c-.31,0-.62,0-.92,0,1.75-.35,3.53-.72,5.39-1.14a4.12,4.12,0,0,0,2.32-6.59c-2.32-2.9-5.89-7.8-9.35-12.54l-.31-.42-1.49-2,20.49,7.21A15.36,15.36,0,0,1,281.36,121.73Z"/><path class="cls-1" d="M160.49,64.07l-.1-.06Z"/><path class="cls-1" d="M158.72,63.22a2.44,2.44,0,0,1-.06.55A2.57,2.57,0,0,0,158.72,63.22Z"/><path class="cls-1" d="M161,64.35h0Z"/><path class="cls-1" d="M160,63.78l-.26-.12Z"/><path class="cls-1" d="M158.66,63.79a2.34,2.34,0,0,1-.17.49A2.21,2.21,0,0,0,158.66,63.79Z"/><path class="cls-1" d="M159.38,63.5l-.66-.28Z"/><path class="cls-1" d="M135.21,48.19l6.05,3.49a1.43,1.43,0,0,0,1.43,0l6.05-3.49a1.43,1.43,0,0,0,.72-1.24V40a1.43,1.43,0,0,0-.72-1.24l-6.05-3.49a1.43,1.43,0,0,0-1.43,0l-6.05,3.49A1.43,1.43,0,0,0,134.5,40v7A1.43,1.43,0,0,0,135.21,48.19Zm2.53-3.52V41L142,38.56,146.22,41v4.9L142,48.35l-4.24-2.45Z"/></g></g></svg>