<svg xmlns="http://www.w3.org/2000/svg" viewBox="0 0 50 48.77"><defs><style>.cls-1,.cls-2{fill:#919090;}.cls-1{fill-rule:evenodd;}</style></defs><title>github-icon</title><g id="圖層_2" data-name="圖層 2"><g id="Layer_1" data-name="Layer 1"><path class="cls-1" d="M25,0a25,25,0,0,0-7.9,48.72c1.25.23,1.71-.54,1.71-1.2s0-2.57,0-4.65c-7,1.51-8.42-2.95-8.42-2.95C9.21,37,7.57,36.26,7.57,36.26c-2.27-1.55.17-1.52.17-1.52a5.26,5.26,0,0,1,3.83,2.58c2.23,3.82,5.85,2.72,7.28,2.08A5.32,5.32,0,0,1,20.44,36C14.89,35.42,9,33.27,9,23.69A9.67,9.67,0,0,1,11.62,17a9,9,0,0,1,.24-6.62s2.1-.67,6.88,2.56a23.71,23.71,0,0,1,12.52,0c4.77-3.23,6.87-2.56,6.87-2.56A9,9,0,0,1,38.38,17a9.66,9.66,0,0,1,2.57,6.71c0,9.6-5.85,11.72-11.42,12.34a6,6,0,0,1,1.7,4.63c0,3.35,0,6,0,6.86,0,.67.45,1.44,1.72,1.2A25,25,0,0,0,25,0Z"/><path class="cls-2" d="M9.47,35.89c-.05.12-.25.16-.43.08s-.28-.25-.22-.38.25-.16.43-.08.29.25.22.38Zm-.31-.23"/><path class="cls-2" d="M10.48,37c-.12.11-.35.06-.51-.12a.38.38,0,0,1-.07-.52c.12-.11.35-.06.51.12s.2.41.07.52Zm-.24-.26"/><path class="cls-2" d="M11.47,38.46c-.15.11-.4,0-.56-.22s-.15-.49,0-.6.4,0,.56.21.15.49,0,.6Zm0,0"/><path class="cls-2" d="M12.82,39.85c-.14.15-.43.11-.64-.1a.48.48,0,0,1-.14-.64c.14-.15.43-.11.65.1s.28.49.14.64Zm0,0"/><path class="cls-2" d="M14.68,40.66c-.06.2-.34.28-.62.2s-.47-.31-.41-.51.34-.29.63-.2.47.31.41.51Zm0,0"/><path class="cls-2" d="M16.73,40.81c0,.21-.23.38-.53.38s-.54-.16-.54-.36.23-.38.53-.38.54.16.54.36Zm0,0"/><path class="cls-2" d="M18.63,40.49c0,.2-.17.41-.47.46s-.56-.07-.6-.27.17-.41.46-.47.56.07.6.27Zm0,0"/></g></g></svg>