<svg xmlns="http://www.w3.org/2000/svg" viewBox="0 0 228.42 64.3"><defs><style>.cls-1{fill:#2292a4;}</style></defs><title>logo</title><g id="圖層_2" data-name="圖層 2"><g id="圖層_1-2" data-name="圖層 1"><path class="cls-1" d="M95.63,13A17.54,17.54,0,0,0,85.19,16.4V13H76.71V57.35h8.48V44.79A17.62,17.62,0,1,0,95.63,13Zm0,27.41a9.79,9.79,0,1,1,9.79-9.79A9.79,9.79,0,0,1,95.63,40.38Z"/><path class="cls-1" d="M143.58,16.4a17.62,17.62,0,1,0,0,28.38v3.43h8.48V3.84h-8.48Zm-10.44,24a9.79,9.79,0,1,1,9.79-9.79A9.79,9.79,0,0,1,133.14,40.38Z"/><rect class="cls-1" x="61.04" y="12.97" width="8.48" height="35.24"/><path class="cls-1" d="M191.87,48.22V13h-8.48v4.49a17.62,17.62,0,1,0,0,26.26v4.49Zm-20.23-7.83a9.79,9.79,0,1,1,9.79-9.79A9.79,9.79,0,0,1,171.64,40.38Z"/><circle class="cls-1" cx="95.63" cy="30.59" r="4"/><circle class="cls-1" cx="64.96" cy="5" r="5"/><circle class="cls-1" cx="133.14" cy="30.59" r="4"/><path class="cls-1" d="M42.12,19.5V13H33.63V48.22h8.48V25.37c2-5.87,13.71-3.92,13.71-3.92V13a62,62,0,0,0-9.14.65C43.42,14.28,42.12,19.5,42.12,19.5Z"/><path class="cls-1" d="M219.28,13.63l-7.83,20.23-7.18-20.23h-9.79l7.26,20.57q1.19,3.38,2.39,6.77c.69,2,2,4,2,6.12a9.44,9.44,0,0,1-.88,3.41c-1.15,2.9-2.92,5.54-6.21,5.77-2,.14-3.81-.69-5.82-.87l-3.26,7.18s3.09.95,3.27,1a20.33,20.33,0,0,0,7.42.6A17.16,17.16,0,0,0,212,57.12c4-5.51,5.6-12.74,7.86-19.12l6.1-17.28c.18-.5,2.09-7.08,2.5-7.08Z"/><path class="cls-1" d="M23.07,41.5c-1.47-.08-3.55-.34-4.45-1.68-1.65-2.45-1.36-6.45-1.55-9.28s-.21-5.52-.21-8.28H25V13.35H16.86c0-3.2,0-6.39.13-9.59v-.5H8V13.35H0v8.92H8v15c0,3.15.64,6.42,2.91,8.77,4.38,4.55,11.74,4,17.09,2.23v-7C28,41.35,23.24,41.51,23.07,41.5Z"/></g></g></svg>